<?xml version="1.0" encoding="UTF-8"?><svg id="Camada_1" xmlns="http://www.w3.org/2000/svg" viewBox="0 0 113.385846 56.6929134"><defs><style>.cls-1{fill:#1d1d1b;}.cls-2{fill:#ea5b0c;}.cls-3{fill:#f9b233;}.cls-4{fill:#f39200;}</style></defs><path class="cls-2" d="M28.2625315,17.5061811c-1.6897878,6.7280128-8.1309463,11.5697412-15.548888,10.7505451C6.1420832,27.5309996.8163057,22.2053045.0904309,15.6337606-.7289468,8.2157097,4.1128208,1.7743984,10.8409293.0845946c1.7856684-.4484811,3.5060403.96026,3.5060436,2.8013865l.0000148,8.2447399c.0000029,1.584726,1.2846771,2.8693991,2.8694032,2.8694006l8.2447403.0000074c1.8411328.0000017,3.2498849,1.7203781,2.8014003,3.5060521Z"/><path class="cls-3" d="M81.8017052,28.3471235h-21.8711269c-2.4037206,0-3.9671006-2.5303468-2.8921241-4.6809329L67.9740177,1.788624c1.1916206-2.383943,4.5926275-2.383943,5.7842481,0l10.9355634,21.8775666c1.0749765,2.1505861-.4884035,4.6809329-2.8921241,4.6809329Z"/><path class="cls-4" d="M53.3855106,28.3471235h-21.7382684c-1.8229735,0-3.3007855-1.477812-3.3007855-3.3007855V3.3080696c0-2.9406858,3.5554144-4.4133867,5.6347933-2.3340078l21.7382684,21.7382684c2.0793789,2.0793789.606678,5.6347933-2.3340078,5.6347933Z"/><path class="cls-4" d="M98.5030945,8.804506l-7.8300171-7.8300171c-2.0800171-2.0799561-5.6300049-.6099854-5.6300049,2.3300171v19.0100098c.0800171-.1099854.1699829-.210022.2600098-.3099976l13.2000122-13.2000122Z"/><path class="cls-4" d="M107.7510193.9740617l-21.7382812,21.7382812c-2.0793457,2.0793457-.6066284,5.6347656,2.3340454,5.6347656h21.7382812c1.822937,0,3.3007812-1.4777832,3.3007812-3.3007812V3.308046c0-2.9406738-3.5554199-4.4133911-5.6348267-2.3339844Z"/><path class="cls-1" d="M21.733813,54.1951351c0,1.5401737-1.1375061,2.4198215-3.3988389,2.4198215h-4.1617362v-9.0566848h3.9028772c2.0161534,0,3.178914.8543645,3.178914,2.329223,0,1.0345079-.5555997,1.7203171-1.3826855,2.0563742,1.1627607.2591537,1.8614694,1.0229197,1.8614694,2.2512662ZM15.1297533,48.3473211v3.2868276h2.8821733c1.4468741,0,2.2865873-.5562324,2.2865873-1.6434138s-.8397131-1.6434138-2.2865873-1.6434138h-2.8821733ZM20.7772977,54.1182318c0-1.1777799-.8660199-1.6950338-2.4560031-1.6950338h-3.1915413v3.4027093h3.1915413c1.5899831,0,2.4560031-.517254,2.4560031-1.7076755Z"/><path class="cls-1" d="M37.8577785,56.6149566l-2.0666624-2.9107386c-.2336044.0252833-.4661565.0389784-.7239632.0389784h-2.4296963v2.8717602h-.9565153v-9.0566848h3.3862116c2.3002668,0,3.6955796,1.1640848,3.6955796,3.1056307,0,1.4232385-.7492177,2.418768-2.0677147,2.8454235l2.2097714,3.1056307h-1.0470107ZM37.8062171,50.6639024c0-1.4495752-.9554631-2.2776029-2.7653711-2.2776029h-2.4033895v4.5415108h2.4033895c1.809908,0,2.7653711-.8406694,2.7653711-2.2639078Z"/><path class="cls-1" d="M54.46158,54.1951351h-5.0403834l-1.0859448,2.4198215h-.9943971l4.1354294-9.0566848h.9428358l4.1354294,9.0566848h-1.0080767l-1.0848925-2.4198215ZM54.1122256,53.4197809l-2.1708374-4.8649262-2.1718896,4.8649262h4.342727Z"/><path class="cls-1" d="M64.9506283,55.5151335l.3746089-.7374293c.6460951.6341892,1.7962285,1.0998231,2.985296,1.0998231,1.6931058,0,2.4296963-.712146,2.4296963-1.6044354,0-2.4840831-5.5696762-.9576046-5.5696762-4.3086938,0-1.33264,1.0333312-2.4840831,3.3346503-2.4840831,1.0207039,0,2.0803419.2981321,2.8043052.8027444l-.3230475.7627126c-.7755245-.5046123-1.6804785-.7500709-2.4812576-.7500709-1.6541717,0-2.3907622.7374293-2.3907622,1.6434138,0,2.4840831,5.5696762.9828879,5.5696762,4.2823571,0,1.33264-1.059638,2.4714415-3.3735844,2.4714415-1.3563787,0-2.687503-.479329-3.3599048-1.1777799Z"/><path class="cls-1" d="M81.5270708,47.5582718h.9565153v9.0566848h-.9565153v-9.0566848Z"/><path class="cls-1" d="M93.1904548,47.5582718h.9565153v8.2286571h5.0656379v.8280277h-6.0221533v-9.0566848Z"/><path class="cls-1" d="M99.212262,38.3460027H14.1731995c-.2392578,0-.4326172-.1932102-.4326172-.4322835s.1933594-.4322835.4326172-.4322835h85.0390625c.2392578,0,.4326172.1932102.4326172.4322835s-.1933594.4322835-.4326172.4322835Z"/></svg>