<?xml version="1.0" encoding="UTF-8"?><svg id="Camada_2" xmlns="http://www.w3.org/2000/svg" viewBox="0 0 229.606318 68.5328288"><defs><style>.cls-1{fill:none;stroke:#2f65ae;stroke-miterlimit:10;}.cls-2{fill:#ea5b0c;}.cls-3{fill:#f9b233;}.cls-4{fill:#f39200;}</style></defs><g id="Camada_1-2"><path class="cls-1" d="M192.9919881,68.0325029h-21.7382684c-1.8229735,0-3.3007855-1.477812-3.3007855-3.3007855v-21.7382684c0-2.9406858,3.5554144-4.4133867,5.6347933-2.3340078l21.7382684,21.7382684c2.0793789,2.0793789.606678,5.6347933-2.3340078,5.6347933Z"/><rect class="cls-1" x="156.6143515" y="39.6857203" width="5.6692913" height="28.3471085" rx="2.8346428" ry="2.8346428"/><path class="cls-1" d="M144.7885911,39.6860154l-10.5230033-.000002c-3.8979719-.0000007-7.3122559,3.0030035-7.4125794,6.8996841-.1029651,3.9992835,3.108239,7.2735362,7.0841829,7.2735362h-5.1716512c-1.8408256,0-3.3331096,1.492284-3.3331096,3.3331096v7.5183512c0,1.8345896,1.4872285,3.3218183,3.3218181,3.3218187l10.5230006.000002c3.8979524.0000007,7.3122294-3.0029709,7.4125807-6.8996313.1029947-3.9993055-3.1082201-7.2736501-7.0841815-7.2736501h5.1829427c1.8345895,0,3.3218181-1.4872286,3.3218181-3.3218181v-7.5295817c0-1.8345896-1.4872285-3.3218183-3.3218181-3.3218187Z"/><path class="cls-1" d="M50.3142974,53.8592746c3.9138184,0,7.0866089-3.1727905,7.0866089-7.0866089s-3.1727905-7.0866089-7.0866089-7.0866089h-12.291057c-1.8222656,0-3.2994995,1.4772339-3.2994995,3.2994995v21.7474365c0,1.8222656,1.4772339,3.2994995,3.2994995,3.2994995h12.291057c3.9138184,0,7.0866089-3.1727295,7.0866089-7.0866089,0-3.9138184-3.1727905-7.0866089-7.0866089-7.0866089Z"/><path class="cls-1" d="M78.6605185,53.8592746c3.9135742-.0001221,7.0863037-3.1729126,7.0863037-7.0866089,0-3.9138184-3.1727905-7.0866089-7.0866089-7.0866089h-12.2905162c-1.8222656,0-3.2994995,1.4772339-3.2994995,3.2994995v10.8737183h.0007935v10.8736572c0,1.8222656,1.4772949,3.2995605,3.2995605,3.2995605h16.0657237c2.6967163,0,4.2584229-3.0553589,2.6789551-5.2410889l-6.4547119-8.9321289Z"/><path class="cls-1" d="M116.5254461,68.0325029h-21.8711269c-2.4037206,0-3.9671006-2.5303468-2.8921241-4.6809329l10.9355634-21.8775666c1.1916206-2.383943,4.5926275-2.383943,5.7842481,0l10.9355634,21.8775666c1.0749765,2.1505861-.4884035,4.6809329-2.8921241,4.6809329Z"/><path class="cls-2" d="M28.2625315,17.5058402c-1.6897878,6.7280128-8.1309463,11.5697412-15.548888,10.7505451C6.1420832,27.5306588.8163057,22.2049637.0904309,15.6334198-.7289468,8.2153688,4.1128208,1.7740576,10.8409293.0842537c1.7856684-.4484811,3.5060403.96026,3.5060436,2.8013865l.0000148,8.2447399c.0000029,1.584726,1.2846771,2.8693991,2.8694032,2.8694006l8.2447403.0000074c1.8411328.0000017,3.2498849,1.7203781,2.8014003,3.5060521Z"/><path class="cls-3" d="M93.1402879,28.3467826h-21.8711269c-2.4037206,0-3.9671006-2.5303468-2.8921241-4.6809329L79.3126003,1.7882832c1.1916206-2.383943,4.5926275-2.383943,5.7842481,0l10.9355634,21.8775666c1.0749765,2.1505861-.4884035,4.6809329-2.8921241,4.6809329Z"/><path class="cls-4" d="M59.054802,28.3467826h-21.7382684c-1.8229735,0-3.3007855-1.477812-3.3007855-3.3007855V3.3077287c0-2.9406858,3.5554144-4.4133867,5.6347933-2.3340078l21.7382684,21.7382684c2.0793789,2.0793789.606678,5.6347933-2.3340078,5.6347933Z"/><path class="cls-4" d="M115.510969,8.804506l-7.8300171-7.8300171c-2.0800171-2.0799561-5.6300049-.6099854-5.6300049,2.3300171v19.0100098c.0800171-.1099854.1699829-.210022.2600098-.3099976l13.2000122-13.2000122Z"/><path class="cls-4" d="M124.7588938.9740617l-21.7382812,21.7382812c-2.0793457,2.0793457-.6066284,5.6347656,2.3340454,5.6347656h21.7382812c1.822937,0,3.3007812-1.4777832,3.3007812-3.3007812V3.308046c0-2.9406738-3.5554199-4.4133911-5.6348267-2.3339844Z"/><path class="cls-2" d="M217.3087696,22.7333213c-.0068359-.0081187-.0053711-.0131243-.0143433-.0220976l-8.5365601-8.5377305,8.536499-8.5376084C219.3723682,3.5576119,217.9028858.0055146,214.9661182.0007532c-.0010376,0-.0010986-.0004273-.0021973-.0004273h-16.0725086c-1.822998,0-3.3007812,1.4780363-3.3007812,3.3012102l-.000061,21.7411062c0,.000061.0001221,0,.0001221.000061v.002869c0,1.8231739,1.4777832,3.3012102,3.3007812,3.3012102h16.0723865c2.9321899,0,4.4005127-3.5309764,2.3449097-5.6134613Z"/><rect class="cls-2" x="184.2519873" y="0" width="5.6692913" height="28.3471085" rx="2.8346428" ry="2.8346428"/><rect class="cls-2" x="223.9370267" y="0" width="5.6692913" height="28.3471085" rx="2.8346428" ry="2.8346428"/><path class="cls-2" d="M175.3438449.0003212h-27.1018066l13.2753296,26.5585327c.5957031,1.1917725,1.7438965,1.7876587,2.8921509,1.7876587,1.1481934,0,2.2963867-.5958862,2.8920898-1.7876587l10.9356079-21.8775635C179.3122287,2.5305336,177.7482638.0003212,175.3438449.0003212Z"/><path class="cls-2" d="M147.1240573.0003212h-7.8233643c-2.4037476,0-3.9671021,2.5303345-2.8921509,4.6809692l10.9356079,21.8775635c1.1915894,2.3839111,4.5925903,2.3839111,5.7842407,0l3.635498-7.2731934L147.347568.4474038l-.2235107-.4470825Z"/></g></svg>